<svg width="16" height="16" viewBox="0 0 16 16" fill="none" xmlns="http://www.w3.org/2000/svg">
<path fill-rule="evenodd" clip-rule="evenodd" d="M7.89882 0C3.53472 0 0 3.53472 0 7.89882C0 11.3941 2.26104 14.3462 5.40082 15.3928C5.79576 15.4619 5.94387 15.225 5.94387 15.0176C5.94387 14.83 5.93399 14.208 5.93399 13.5465C3.94941 13.9118 3.43599 13.0627 3.27801 12.6184C3.18915 12.3913 2.80408 11.6903 2.46838 11.5027C2.19192 11.3546 1.79698 10.9892 2.45851 10.9794C3.08054 10.9695 3.52485 11.552 3.67295 11.789C4.38385 12.9837 5.5193 12.648 5.97349 12.4406C6.0426 11.9272 6.24995 11.5817 6.47704 11.3842C4.71955 11.1867 2.88307 10.5054 2.88307 7.48414C2.88307 6.62514 3.18915 5.91424 3.6927 5.36133C3.61371 5.16386 3.33725 4.35423 3.77169 3.26814C3.77169 3.26814 4.43322 3.06079 5.94387 4.07777C6.57577 3.90004 7.24717 3.81118 7.91857 3.81118C8.58997 3.81118 9.26137 3.90004 9.89328 4.07777C11.4039 3.05092 12.0655 3.26814 12.0655 3.26814C12.4999 4.35423 12.2234 5.16386 12.1444 5.36133C12.648 5.91424 12.9541 6.61527 12.9541 7.48414C12.9541 10.5153 11.1077 11.1867 9.35023 11.3842C9.63657 11.631 9.8834 12.1049 9.8834 12.8455C9.8834 13.9019 9.87353 14.7511 9.87353 15.0176C9.87353 15.225 10.0216 15.4718 10.4166 15.3928C11.9846 14.8635 13.3472 13.8557 14.3125 12.5114C15.2778 11.167 15.7972 9.55383 15.7976 7.89882C15.7976 3.53472 12.2629 0 7.89882 0Z" />
</svg>
