<svg width="12" height="15" viewBox="0 0 12 15" fill="none" xmlns="http://www.w3.org/2000/svg">
<path d="M3.5 6C3.22386 6 3 6.22386 3 6.5C3 6.77614 3.22386 7 3.5 7H8.5C8.77614 7 9 6.77614 9 6.5C9 6.22386 8.77614 6 8.5 6H3.5Z" />
<path d="M3 8.5C3 8.22386 3.22386 8 3.5 8H8.5C8.77614 8 9 8.22386 9 8.5C9 8.77614 8.77614 9 8.5 9H3.5C3.22386 9 3 8.77614 3 8.5Z" />
<path d="M3 10.5C3 10.2239 3.22386 10 3.5 10H5.5C5.77614 10 6 10.2239 6 10.5C6 10.7761 5.77614 11 5.5 11H3.5C3.22386 11 3 10.7761 3 10.5Z" />
<path d="M7.5 1.6822e-06C5.5 -2.10275e-06 2 1.6822e-06 2 1.6822e-06C0.895431 1.6822e-06 0 0.895432 0 2V13C0 14.1046 0.895431 15 2 15H10C11.1046 15 12 14.1046 12 13C12 13 12 7.5 12 4.5C12 3.29976 11.2659 2.30681 10.5 1.5C9.5 0.5 8.78504 4.1141e-06 7.5 1.6822e-06ZM7.5 1V3C7.5 3.82843 8.17157 4.5 9 4.5H11V13C11 13.5523 10.5523 14 10 14H2C1.44772 14 1 13.5523 1 13V2C1 1.44772 1.44772 1 2 1H7.5Z" />
</svg>
