<svg width="41" height="41" viewBox="0 0 41 41" fill="none" xmlns="http://www.w3.org/2000/svg">
<path d="M34.1669 0H6.83312C3.06228 0.0128129 0.0128129 3.06356 0 6.83312V34.1669C0 37.9236 3.07638 41 6.83312 41H34.1669C37.9236 41 41 37.9236 41 34.1669V6.83312C41 3.07638 37.9236 0 34.1669 0ZM30.4294 28.7957C30.0885 29.617 29.5478 30.3435 28.8547 30.9047C28.1333 31.4851 27.2261 31.9656 26.105 32.3064C24.9903 32.6537 23.6629 32.8266 22.1215 32.8266H11.137V8.90881H22.7557C24.9044 8.90881 26.6265 9.38929 27.9142 10.3772C29.216 11.365 29.8566 12.8462 29.8566 14.8348C29.8566 16.043 29.5632 17.0706 28.9751 17.924C28.387 18.7773 27.54 19.4384 26.4458 19.8997V19.9804C27.9078 20.2879 29.0353 20.9811 29.7759 22.0561C30.5165 23.1311 30.9034 24.4919 30.9034 26.1332C30.9034 27.0544 30.7228 27.9283 30.3896 28.7419L30.4294 28.788V28.7957ZM25.6847 22.9031C24.9903 22.2624 24.0024 21.9485 22.7352 21.9485H15.3473V29.4094H22.7544C24.0152 29.4094 25.0095 29.0827 25.7104 28.4216C26.4112 27.7604 26.7649 26.82 26.7649 25.6181C26.7521 24.4368 26.4112 23.5232 25.7104 22.9018H25.6771L25.6847 22.9031ZM24.6636 18.0777C25.3375 17.5037 25.6706 16.6824 25.6706 15.6087C25.6706 14.4068 25.3708 13.5535 24.7635 13.0666C24.1626 12.5797 23.2951 12.326 22.1548 12.326H15.3217V18.9259H22.1548C23.1491 18.9259 24.0037 18.6325 24.6571 18.079L24.6636 18.0777Z" fill="#0D0D0D"/>
</svg>
