<svg width="38" height="53" viewBox="0 0 38 53" fill="none" xmlns="http://www.w3.org/2000/svg">
<path d="M13.5311 4.78984V7.07352H7.69148V0H13.5311V2.50273H10.1942V4.78984H13.5311ZM19.534 2.50273H21.8668V0H16.0266V2.50273C16.8079 3.28405 17.2154 3.65806 18.3454 4.78808C17.6848 4.78808 16.0266 4.79025 16.0266 4.79025V7.07352H21.8668V4.78984L19.534 2.50273ZM27.8113 2.50273H30.1439V0H24.3039V2.50273C25.085 3.28405 25.4926 3.65806 26.6225 4.78808C25.9624 4.78808 24.3039 4.79025 24.3039 4.79025V7.07352H30.144V4.78984L27.8113 2.50273ZM37.8356 10.4353L34.2881 48.8616L18.9177 53L3.54698 48.8616L0 10.4353H37.8356ZM30.6875 18.2486H18.9038H6.91182L7.48528 22.8889H18.9038H19.5452L18.9038 23.1558L7.90265 27.7378L8.26753 32.2735L18.9038 32.308L24.6045 32.3261L24.2393 38.3741L18.9038 39.8764V39.8716L18.86 39.8836L13.7069 38.5828L13.3941 34.8287H13.3771H8.59725H8.58045L9.20608 42.0761L18.9038 44.9439V44.9387L18.9212 44.9439L28.5671 42.1283L29.8186 27.7379H18.9038H18.8768L18.9038 27.7263L30.2181 22.889L30.6875 18.2486Z" fill="#0D0D0D"/>
</svg>
