<svg width="50" height="51" viewBox="0 0 50 51" fill="none" xmlns="http://www.w3.org/2000/svg">
<path d="M49.0559 22.7723L27.2215 0.945703C25.9684 -0.315234 23.9262 -0.315234 22.6637 0.945703L18.1387 5.47852L23.8918 11.2238C25.234 10.777 26.7652 11.077 27.823 12.1441C28.898 13.2191 29.198 14.7645 28.7434 16.0988L34.2777 21.641C35.6199 21.177 37.1668 21.4785 38.2324 22.552C39.7387 24.0488 39.7387 26.4738 38.2324 27.9723C36.7355 29.4691 34.3184 29.4691 32.8199 27.9723C31.6965 26.8488 31.4121 25.1895 31.973 23.8145L26.7887 18.6551V32.2535C27.1543 32.4332 27.5043 32.677 27.8059 32.9785C29.2949 34.4848 29.2949 36.9004 27.8059 38.3988C26.309 39.8957 23.8746 39.8957 22.3699 38.3988C20.873 36.902 20.873 34.4848 22.3699 32.9785C22.7527 32.6035 23.1762 32.327 23.6309 32.141V18.4129C23.184 18.2176 22.7512 17.9488 22.3777 17.5754C21.2465 16.4441 20.9699 14.7848 21.5559 13.3926L15.9074 7.71289L0.933984 22.6785C-0.311328 23.9316 -0.311328 25.9738 0.933984 27.2363L22.7684 49.0629C24.0293 50.3238 26.0637 50.3238 27.3262 49.0629L49.0543 27.3348C50.3152 26.0816 50.3152 24.0395 49.0543 22.777L49.0559 22.7723Z" fill="#0D0D0D"/>
</svg>
