<svg width="36" height="50" viewBox="0 0 36 50" fill="none" xmlns="http://www.w3.org/2000/svg">
<path d="M0 9.80691H35.5183L32.1646 45.8841L17.7337 50L3.30284 45.8841L0 9.80691ZM3.30284 6.75813V0H5.58943V2.23577H7.62195V0H9.85772V6.75813H7.62195V4.52236H5.58943V6.75813H3.30284ZM6.60569 17.1748L7.8252 30.6911L7.87602 30.5894H23.1199L22.6118 36.3313L17.7337 37.7033L12.8049 36.2805L12.5 32.8252H8.02845L8.63821 39.7374L17.7337 42.3288L26.8309 39.7374L28.1012 26.1703H11.8902L11.4837 21.6479H28.5061L28.9142 17.1764H6.60569V17.1748ZM10.874 2.28659V0H17.0732V2.28659H15.0915V6.75813H12.8573V2.28659H10.874ZM18.0386 6.75813V0H20.4268L21.7988 2.3374L23.2215 0H25.6098V6.75813H23.4232V3.30285L21.7988 5.8435V5.79268L20.2728 3.40447V6.75813H18.0386ZM26.7785 6.75813V0H29.0142V4.47154H32.163V6.75813H26.7785Z" fill="#0D0D0D"/>
</svg>
