<svg width="44" height="44" viewBox="0 0 44 44" fill="none" xmlns="http://www.w3.org/2000/svg">
<path d="M0 0H44V44H0V0ZM40.3975 33.5088C40.0757 31.4958 38.764 29.8128 34.8906 28.2384C33.5445 27.6086 32.0402 27.1645 31.5961 26.147C31.4311 25.5448 31.4023 25.2161 31.5095 24.8572C31.7886 23.6679 33.1856 23.3172 34.2884 23.6472C35.0047 23.8686 35.6634 24.4131 36.0786 25.2945C37.9761 24.0556 37.9761 24.0556 39.2948 23.232C38.8011 22.4661 38.5578 22.1292 38.2209 21.8075C37.0673 20.5109 35.5286 19.8522 33.0289 19.91L31.7322 20.075C30.4934 20.3761 29.3123 21.0347 28.5959 21.9161C26.5114 24.2798 27.1136 28.4047 29.6409 30.1166C32.1406 31.9853 35.7995 32.3936 36.2725 34.1564C36.7097 36.3055 34.6761 36.993 32.6631 36.7414C31.1809 36.4114 30.3573 35.6675 29.447 34.2925L26.0948 36.2189C26.4743 37.1003 26.9184 37.4797 27.577 38.2525C30.7642 41.4686 38.742 41.3036 40.1734 36.4114C40.2229 36.2464 40.6106 35.1147 40.3095 33.3891L40.3975 33.5088ZM23.9264 20.2235H19.8083C19.8083 23.7751 19.7863 27.3061 19.7863 30.866C19.7863 33.1224 19.9004 35.1986 19.536 35.8366C18.9269 37.0975 17.3731 36.9394 16.6636 36.718C15.9404 36.3605 15.5678 35.8655 15.1456 35.1491C15.0233 34.9552 14.938 34.7916 14.9091 34.7916L11.5651 36.8541C12.1234 38.0077 12.9401 39.0033 13.9934 39.633C15.5623 40.5707 17.6674 40.8719 19.8729 40.3783C21.3056 39.963 22.5445 39.1105 23.188 37.7933C24.1257 36.0882 23.925 33.9982 23.9181 31.6552C23.9401 27.8877 23.9181 24.1216 23.9181 20.3252L23.9264 20.2235Z" fill="#0D0D0D"/>
</svg>
