<svg width="52" height="47" viewBox="0 0 52 47" fill="none" xmlns="http://www.w3.org/2000/svg">
<path d="M26 18.4963C23.4439 18.4963 21.3622 20.578 21.3622 23.1341C21.3622 25.6902 23.4439 27.7718 26 27.7718C28.5561 27.7718 30.6378 25.6902 30.6378 23.1341C30.6378 20.578 28.5561 18.4963 26 18.4963ZM13.0163 32.3511L11.9925 32.0976C4.3745 30.1671 0 26.9008 0 23.126C0 19.3511 4.37613 16.0848 11.9925 14.1543L13.0163 13.9008L13.3039 14.9165C14.0741 17.5733 15.0638 20.1636 16.2581 22.6693L16.4775 23.126L16.2581 23.5907C15.0654 26.0867 14.0741 28.677 13.3039 31.3436L13.0163 32.3511ZM11.5196 16.5236C5.72975 18.1486 2.17587 20.6446 2.17587 23.126C2.17587 25.6073 5.73138 28.0936 11.5196 29.7283C12.2314 27.468 13.0861 25.2677 14.0839 23.126C13.0845 20.9842 12.2298 18.784 11.5196 16.5236ZM38.9837 32.3511L38.6961 31.3355C37.9259 28.6786 36.9363 26.0883 35.7419 23.5907L35.5225 23.126L35.7419 22.6612C36.9346 20.1652 37.9259 17.575 38.6961 14.9083L38.9837 13.9008L40.0075 14.1543C47.6255 16.0848 52 19.3511 52 23.126C52 26.9008 47.6239 30.1671 40.0075 32.0976L38.9837 32.3511ZM37.9161 23.126C38.9577 25.3766 39.8206 27.5866 40.4804 29.7283C46.2784 28.0952 49.8241 25.6073 49.8241 23.126C49.8241 20.6446 46.2686 18.1583 40.4804 16.5236C39.7686 18.7742 38.9139 20.9842 37.9161 23.126ZM11.5017 16.5155L11.2141 15.4998C9.07238 7.95009 9.724 2.53396 13 0.645714C16.2159 -1.20841 21.3704 0.983714 26.7784 6.53634L27.5145 7.29034L26.7784 8.04434C24.8576 10.0415 23.1059 12.1913 21.5312 14.4761L21.2355 14.8905L20.7269 14.9327C17.9595 15.1521 15.2165 15.5925 12.5255 16.2538L11.5017 16.5155ZM15.6146 2.15371C15.0312 2.15371 14.5145 2.27234 14.0823 2.52584C11.9324 3.77059 11.5521 8.08659 13.0325 13.909C15.3433 13.3922 17.6784 13.0282 20.0411 12.817C21.3948 10.8865 22.8849 9.04209 24.4839 7.30659C21.1071 4.01434 17.9075 2.15371 15.6146 2.15371ZM36.3935 46.2643C36.3854 46.2643 36.3854 46.2643 36.3935 46.2643C33.3044 46.2643 29.3345 43.9455 25.2216 39.714L24.4855 38.96L25.2216 38.206C27.1424 36.2088 28.8941 34.059 30.4688 31.7742L30.7564 31.3598L31.265 31.3095C34.0324 31.0982 36.7754 30.6578 39.4745 29.9883L40.4983 29.7348L40.7859 30.7505C42.9276 38.3002 42.276 43.7082 39 45.5948C38.2038 46.0515 37.3068 46.2822 36.3935 46.2643ZM27.5145 38.9437C30.8912 42.236 34.0909 44.0982 36.3838 44.0982H36.3919C36.9671 44.0982 37.4839 43.9715 37.9161 43.7261C40.066 42.4813 40.456 38.1653 38.9659 32.343C36.6551 32.8597 34.3102 33.2237 31.9573 33.4268C30.6036 35.3655 29.1135 37.2001 27.5145 38.9437ZM40.4983 16.5155L39.4745 16.2538C36.7754 15.5941 34.0324 15.1537 31.265 14.9327L30.7564 14.8905L30.4688 14.4761C28.8941 12.1913 27.1424 10.0415 25.2216 8.04434L24.4855 7.29034L25.2216 6.53634C30.6296 0.983714 35.7841 -1.20841 39 0.645714C42.276 2.53234 42.9276 7.95009 40.7859 15.4998L40.4983 16.5155ZM31.9589 12.817C34.4305 13.0461 36.7835 13.4101 38.9675 13.909C40.4576 8.08659 40.0676 3.76896 37.9177 2.52584C35.776 1.29084 31.7476 3.18559 27.5161 7.30821C29.1151 9.05184 30.5971 10.8881 31.9589 12.8186V12.817ZM15.6146 46.2643C14.6997 46.2806 13.7946 46.0531 13 45.5965C9.724 43.7098 9.07238 38.3002 11.2141 30.7521L11.5017 29.7365L12.5255 29.99C15.0312 30.6253 17.7905 31.0641 20.7269 31.3111L21.2355 31.3615L21.5231 31.7758C23.0977 34.0606 24.8495 36.2105 26.7703 38.2076L27.5064 38.9616L26.7703 39.7156C22.6655 43.9471 18.6956 46.266 15.6146 46.266V46.2643ZM13.0341 32.343C11.544 38.1653 11.934 42.483 14.0839 43.7261C16.2256 44.9448 20.2459 43.0663 24.4855 38.9437C22.8865 37.2001 21.3964 35.3638 20.0427 33.4252C17.6816 33.2221 15.3449 32.8597 13.0341 32.343ZM26 33.7047C24.2141 33.7047 22.386 33.6283 20.5497 33.4756L20.0411 33.4333L19.7454 33.0108C18.7135 31.5207 17.7304 29.99 16.8253 28.4153C15.9104 26.8407 15.0735 25.2336 14.2951 23.5907L14.0757 23.126L14.2951 22.6612C15.0735 21.02 15.912 19.4112 16.8253 17.8366C17.7222 16.288 18.7038 14.7393 19.7454 13.2411L20.0411 12.8186L20.5497 12.7763C24.18 12.4708 27.8281 12.4708 31.4503 12.7763L31.9589 12.8186L32.2546 13.2411C34.3281 16.2197 36.1562 19.3771 37.7049 22.6612L37.9242 23.126L37.7049 23.5907C36.1562 26.8748 34.3363 30.0322 32.2546 33.0108L31.9589 33.4333L31.4503 33.4756C29.6221 33.6283 27.7859 33.7047 26 33.7047ZM21.2436 31.3517C24.4433 31.5971 27.5567 31.5971 30.7645 31.3517C32.5504 28.7371 34.1413 25.986 35.5209 23.1243C34.1494 20.2643 32.5585 17.5132 30.7564 14.897C27.5909 14.6516 24.4091 14.6516 21.2436 14.897C19.4415 17.5116 17.849 20.2627 16.4791 23.1243C17.8587 25.9843 19.4496 28.7355 21.2436 31.3517Z" fill="#0D0D0D"/>
</svg>
