<svg width="49" height="36" viewBox="0 0 49 36" fill="none" xmlns="http://www.w3.org/2000/svg">
<path fill-rule="evenodd" clip-rule="evenodd" d="M0 15.0116C0 15.2811 0.0793594 15.459 0.123831 15.6319C0.413665 16.7563 1.03666 17.7213 1.77581 18.6015C2.82857 19.8559 4.11787 20.8658 5.43861 21.8154C6.58414 22.6389 7.75306 23.444 8.9032 24.2613C9.10064 24.4017 9.28734 24.5631 9.50165 24.7352C9.31725 24.8349 9.16389 24.9227 9.00441 25.0036C7.48661 25.7734 6.02633 26.6364 4.68028 27.6818C3.86906 28.3121 3.08466 28.9819 2.53068 29.8571C1.63933 31.2649 1.32381 32.7647 1.9882 34.366C2.18219 34.8338 2.47816 35.2378 2.89566 35.5365C3.03099 35.6331 3.18281 35.729 3.34114 35.7665C3.74676 35.862 4.16004 35.9245 4.57064 36L5.73342 35.9992C7.01928 35.8846 8.18973 35.4441 9.24747 34.7141C10.9006 33.5732 12.0143 32.0435 12.4932 30.0803C12.8413 28.6533 12.8554 27.2249 12.4452 25.8044C12.4073 25.6726 12.3594 25.5434 12.3095 25.4157C12.2597 25.288 12.201 25.1638 12.132 25.0047L14.7681 23.4888L14.8076 23.5226C14.7597 23.6794 14.7087 23.8358 14.6654 23.9941C14.3522 25.1381 14.144 26.3021 14.2187 27.4894C14.2985 28.7545 14.6516 29.9388 15.3923 30.9958C15.9911 31.8507 17.418 31.8825 18.0544 31.0245C18.2802 30.7197 18.4992 30.4011 18.6636 30.0611C19.0934 29.1736 19.4913 28.2703 19.9019 27.3732L19.9736 27.2091C19.9441 27.6339 19.9096 28.0069 19.8939 28.3804C19.8694 28.9635 19.9035 29.5431 20.1028 30.0979C20.2734 30.5725 20.5637 30.9271 21.1073 30.9896C21.4792 31.0322 21.7755 30.862 22.0489 30.6461C22.4759 30.3091 22.8229 29.8928 23.0805 29.4197C23.8093 28.0813 24.5577 26.751 25.2182 25.3789C25.9329 23.8948 26.5578 22.3674 27.2214 20.8581L27.331 20.5905C27.4879 21.2066 27.5971 21.81 27.7984 22.3812C28.0322 23.0441 28.3217 23.6913 28.6368 24.3204C28.786 24.6175 28.7687 24.8103 28.5621 25.0595C27.6972 26.1023 26.8472 27.1578 25.9965 28.212C25.8083 28.4448 25.6208 28.6817 25.464 28.9359C25.3693 29.0904 25.3064 29.2786 25.28 29.4588C25.229 29.8031 25.4418 30.1351 25.8102 30.2144C26.1468 30.2869 26.5052 30.3137 26.8484 30.2884C28.0357 30.201 29.1138 29.7843 30.0668 29.0781C31.3017 28.1634 31.6981 26.9151 31.3991 25.4356C31.3182 25.0342 31.1752 24.6439 31.036 24.2571C30.9735 24.0827 30.9693 23.9604 31.0832 23.7978C32.0704 22.3881 32.9138 20.8926 33.6982 19.3625C33.7292 19.3023 33.7611 19.2421 33.8155 19.1777C34.0697 20.5004 34.4523 21.7751 35.1378 22.9318C34.7881 23.2688 34.4419 23.5743 34.1287 23.9109C33.439 24.6524 32.841 25.4575 32.5289 26.4393C32.3947 26.8626 32.2916 27.2927 32.3514 27.7447C32.4442 28.4467 33.0192 28.9029 33.7097 28.743C35.1872 28.4011 36.4627 27.7048 37.3947 26.4715C38.0219 25.6411 38.0791 24.7149 37.8164 23.7445C37.7444 23.4808 37.6589 23.2212 37.5669 22.9187C37.9315 22.8056 38.2868 22.6699 38.6545 22.586C40.5634 22.1505 42.4515 22.2264 44.2909 22.9157C45.3648 23.3182 46.2324 23.9918 46.7469 25.0515C47.3752 26.3469 47.0279 27.576 45.8068 28.3949C45.693 28.4712 45.5626 28.5314 45.4683 28.6269C45.4104 28.6855 45.3755 28.8028 45.3897 28.8837C45.3978 28.9309 45.5224 28.9899 45.594 28.9892C45.9954 28.9861 46.3209 28.7756 46.6334 28.5594C47.4162 28.0177 47.9875 27.2889 48.1105 26.3293L48.1347 26.2572L48.1052 25.6323C48.0933 25.5963 48.114 25.5606 48.1113 25.5334C47.9449 24.136 47.1985 23.0522 46.1128 22.2026C44.8553 21.2192 43.3704 20.8144 41.8001 20.7504C40.5204 20.6982 39.2626 20.8884 38.0564 21.3266C37.7126 21.4512 37.3717 21.5988 37.0259 21.7379C36.9795 21.654 36.9297 21.5735 36.8887 21.4903C36.5337 20.7634 36.1035 20.0687 36.0084 19.2352C35.941 18.6433 35.8581 18.0521 35.9988 17.4667C36.1342 16.9035 36.3105 16.3499 36.4765 15.7944C36.562 15.5084 36.5018 15.3482 36.2289 15.2194C36.1338 15.1745 36.0303 15.1354 35.9275 15.1204C35.2566 15.0231 34.5949 15.0787 33.9451 15.2677C33.7151 15.3348 33.5479 15.4636 33.4969 15.7181C33.4678 15.8642 33.4084 16.0041 33.367 16.1483C33.1971 16.7475 33.0767 17.3582 32.8022 17.9291C32.1145 19.361 31.3293 20.7389 30.5257 22.1068C30.4387 22.2544 30.3471 22.3993 30.2374 22.5783C29.9553 21.9879 29.6543 21.4581 29.5631 20.837C29.4599 20.1347 29.3787 19.4335 29.5535 18.7365C29.6835 18.2166 29.8533 17.7063 30.0097 17.1934C30.0837 16.9495 30.0496 16.8215 29.8288 16.6931C29.7172 16.6283 29.5911 16.5708 29.4653 16.552C28.7695 16.4489 28.084 16.5029 27.4127 16.7199C27.2045 16.7874 27.0953 16.9219 27.0316 17.1366C26.8445 17.77 26.6851 18.4186 26.4224 19.0209C25.3589 21.4592 24.2648 23.8849 23.1718 26.3101C22.9437 26.8166 22.6764 27.3054 22.4192 27.7984C22.354 27.9234 22.259 28.0334 22.1777 28.1507C22.1125 28.0737 22.0872 28.0207 22.0876 27.9678C22.0895 27.6562 22.0523 27.3353 22.1117 27.0339C22.2915 26.1223 22.4986 25.2156 22.7167 24.3123C22.8969 23.5663 23.1066 22.8271 23.3063 22.086C23.3734 21.838 23.3746 21.6061 23.1963 21.3975C22.8969 21.0482 22.2712 20.9716 21.9001 21.2407L21.736 21.3335L21.7678 21.0689C21.8461 20.5019 21.8618 19.9368 21.7061 19.3782C21.5121 18.682 21.0153 18.2814 20.293 18.3036C19.9564 18.314 19.6029 18.3715 19.2912 18.4942C17.9804 19.0079 16.9725 19.9177 16.1145 21.0122C16.0367 21.1115 15.934 21.202 15.8243 21.2629C14.7152 21.8779 13.6026 22.4851 12.4905 23.0947L11.2525 23.7729C10.9205 23.4562 10.6188 23.1277 10.2765 22.849C9.23099 21.9963 8.16864 21.1648 7.11589 20.3217C6.18274 19.5745 5.27874 18.7963 4.58712 17.8068C4.07263 17.0707 3.74101 16.2652 3.70919 15.3551C3.66893 14.1954 3.99787 13.1357 4.58827 12.1493C5.34353 10.8872 6.37367 9.87429 7.50617 8.95687C8.70422 7.98692 10 7.16343 11.343 6.41162C13.222 5.36001 15.1546 4.42917 17.2267 3.81462C19.3514 3.18434 21.5071 2.82358 23.7307 3.07508C24.6048 3.17399 25.4536 3.37411 26.233 3.80158C26.83 4.1286 27.3195 4.55684 27.5473 5.22621C27.7719 5.88486 27.765 6.55232 27.6094 7.22132C27.2931 8.57617 26.5513 9.69296 25.6177 10.6909C24.0865 12.3268 22.2187 13.4405 20.1159 14.1762C18.9025 14.6006 17.6542 14.867 16.3722 14.9748C15.3259 15.0626 14.3015 14.9698 13.3109 14.606C12.6549 14.3648 12.0837 13.996 11.6244 13.4608C11.5424 13.365 11.4373 13.2611 11.2844 13.3508C11.1345 13.4389 11.108 13.5816 11.1582 13.7261C11.2422 13.9661 11.3196 14.2161 11.4504 14.4307C11.7789 14.9694 12.2581 15.3601 12.7857 15.6951C13.7989 16.3396 14.9314 16.5562 16.1057 16.6064C17.8877 16.6835 19.6263 16.4174 21.3404 15.9393C23.7875 15.2569 25.9152 14.0516 27.6216 12.15C29.0424 10.5667 30.0572 8.77975 30.2746 6.6221C30.3808 5.56895 30.2677 4.53728 29.7747 3.57654C29.2399 2.53567 28.3896 1.76162 27.3728 1.22834C25.8922 0.452003 24.2943 0 22.645 0H20.9927C18.9953 0 17.0642 0.572384 15.1872 1.25518C13.7664 1.77236 12.3732 2.3827 11.0206 3.05821C8.0751 4.53 5.33203 6.30466 3.07891 8.74486C1.95638 9.96056 1.00599 11.302 0.459287 12.8815C0.299419 13.3439 0.147601 13.8396 0.0333539 14.3177M10.7062 28.1243C10.5786 29.8337 9.80375 31.2197 8.53745 32.3422C7.82514 32.9732 7.00816 33.4225 6.05661 33.5805C5.71157 33.6376 5.35848 33.6514 5.02379 33.5084C4.54648 33.3045 4.43952 32.8808 4.43032 32.4296C4.41614 31.7104 4.66802 31.0602 5.01344 30.4414C5.46429 29.6348 6.12524 29.0198 6.83104 28.4455C7.94283 27.5404 9.14894 26.7744 10.3842 26.0513L10.4773 26.013C10.6683 26.7184 10.7591 27.415 10.7062 28.1243ZM20.3513 20.6948C20.2612 21.2407 20.1485 21.787 19.989 22.3161C19.4377 24.1475 18.7296 25.9221 17.964 27.673C17.8225 27.997 17.6166 28.2926 17.4376 28.5996C17.41 28.6472 17.369 28.6882 17.3291 28.7277C17.1075 28.9466 16.8974 28.9351 16.7855 28.6487C16.6551 28.3159 16.575 27.9598 16.506 27.6075C16.4596 27.3709 16.4707 27.1225 16.4561 26.8802C16.4711 25.1573 16.9967 23.5916 17.8884 22.134C18.2561 21.5328 18.6563 20.9601 19.2678 20.5798C19.4557 20.4628 19.6665 20.3689 19.8793 20.3091C20.2052 20.2175 20.4053 20.3681 20.3513 20.6948ZM26.9316 29.0785L29.2966 26.317C29.3952 27.3425 27.6519 29.3898 26.9316 29.0785ZM34.4853 27.2203C34.3181 27.3161 34.136 27.3851 33.9646 27.4737C33.8078 27.5549 33.7561 27.4729 33.7515 27.3379C33.7484 27.2463 33.7618 27.1505 33.7871 27.0615C34.1065 25.9352 34.6942 24.9737 35.5687 24.1916L35.63 24.1601C36.046 25.3237 35.5652 26.6015 34.4853 27.2203Z" fill="#0D0D0D"/>
</svg>
