<svg viewBox="0 0 500 8" fill="none" xmlns="http://www.w3.org/2000/svg">
<g clip-path="url(#clip0_83_4)">
<path d="M0 5.4649C42.6136 5.4649 82.3864 0 125 0C167.614 0 207.386 5.4649 250 5.4649C292.614 5.4649 332.386 0 375 0C417.614 0 457.386 5.4649 500 5.4649V8L0 8L0 5.4649Z" />
<path d="M0 5.4649C42.6136 5.4649 82.3864 0 125 0C167.614 0 207.386 5.4649 250 5.4649C292.614 5.4649 332.386 0 375 0C417.614 0 457.386 5.4649 500 5.4649V8L0 8L0 5.4649Z" />
<path d="M0 5.4649C42.6136 5.4649 82.3864 0 125 0C167.614 0 207.386 5.4649 250 5.4649C292.614 5.4649 332.386 0 375 0C417.614 0 457.386 5.4649 500 5.4649V8L0 8L0 5.4649Z" />
<path d="M0 5.4649C42.6136 5.4649 82.3864 0 125 0C167.614 0 207.386 5.4649 250 5.4649C292.614 5.4649 332.386 0 375 0C417.614 0 457.386 5.4649 500 5.4649V8L0 8L0 5.4649Z" />
</g>
<defs>
<clipPath id="clip0_83_4">
<rect width="500" height="8"/>
</clipPath>
</defs>
</svg>
